<svg xmlns="http://www.w3.org/2000/svg" version="1.1" xmlns:xlink="http://www.w3.org/1999/xlink" xmlns:svgjs="http://svgjs.dev/svgjs" width="1500" height="208" viewBox="0 0 1500 208"><g transform="matrix(1,0,0,1,-0.9137252834910896,-0.2590281215837962)"><svg viewBox="0 0 396 55" data-background-color="#ffffff" preserveAspectRatio="xMidYMid meet" height="208" width="1500" xmlns="http://www.w3.org/2000/svg" xmlns:xlink="http://www.w3.org/1999/xlink"><g id="tight-bounds" transform="matrix(1,0,0,1,0.24122347484166085,0.06849301291879328)"><svg viewBox="0 0 395.52 54.863013974162385" height="54.863013974162385" width="395.52"><g><svg viewBox="0 0 395.52 54.863013974162385" height="54.863013974162385" width="395.52"><g><svg viewBox="0 0 395.52 54.863013974162385" height="54.863013974162385" width="395.52"><g id="textblocktransform"><svg viewBox="0 0 395.52 54.863013974162385" height="54.863013974162385" width="395.52" id="textblock"><g><svg viewBox="0 0 395.52 54.863013974162385" height="54.863013974162385" width="395.52"><g transform="matrix(1,0,0,1,0,0)"><svg width="395.52" viewBox="1.15 -38.55 282.57000000000005 39.199999999999996" height="54.863013974162385" data-palette-color="#00cce1"><g class="wordmark-text-0" data-fill-palette-color="primary" id="text-0"><path d="M18.85-11.55L11.95-11.55 11.95-5.3Q11.95-2.7 10.58-1.35 9.2 0 6.95 0L6.95 0 6.9 0Q4.45 0 3.03-1.35 1.6-2.7 1.6-5.3L1.6-5.3 1.6-12.35Q1.6-17.65 3.2-20.4 4.8-23.15 7.25-24.35L7.25-24.35 7-25.3 6.15-25.3Q3.85-25.3 2.53-26.78 1.2-28.25 1.15-30.8L1.15-30.8Q1.1-33.3 2.48-34.85 3.85-36.4 6.15-36.4L6.15-36.4 19.3-36.4Q24.35-36.4 27.53-33.38 30.7-30.35 30.7-23.85L30.7-23.85Q30.7-19.15 29.05-16.45 27.4-13.75 24.7-12.65 22-11.55 18.85-11.55L18.85-11.55ZM11.3-25.1L11.3-21.2Q11.3-20.1 11.73-19.75 12.15-19.4 13.25-19.4L13.25-19.4 17.9-19.4Q20-19.4 20.95-20.38 21.9-21.35 21.9-23.15L21.9-23.15Q21.9-24.95 20.95-25.9 20-26.85 17.9-26.85L17.9-26.85 13.25-26.85Q12.15-26.85 11.73-26.55 11.3-26.25 11.3-25.1L11.3-25.1ZM37.75 0L37.75 0Q35.4 0 34.1-1.35 32.8-2.7 32.8-4.75L32.8-4.75 32.8-21.15Q32.8-23.3 34.1-24.73 35.4-26.15 37.75-26.15L37.75-26.15Q40.1-26.15 41.35-24.73 42.6-23.3 42.6-21.25L42.6-21.25 42.6-20.2 43.55-20.2Q43.75-22.85 45.55-24.55 47.35-26.25 49.8-26.25L49.8-26.25Q52.25-26.25 53.67-24.75 55.1-23.25 55.1-20.75L55.1-20.75Q55.1-18.4 53.75-16.85 52.4-15.3 50.3-15.3L50.3-15.3Q48.55-15.3 47.37-16.13 46.2-16.95 45.65-18.05L45.65-18.05Q44.05-18.25 43.32-17.73 42.6-17.2 42.6-15.65L42.6-15.65 42.6-4.75Q42.6-2.7 41.35-1.35 40.1 0 37.75 0ZM69.5 0.1L69.5 0.1Q63.65 0.1 60.17-3.38 56.7-6.85 56.7-13.2L56.7-13.2Q56.7-17.1 58.3-20.05 59.9-23 62.77-24.68 65.65-26.35 69.5-26.35L69.5-26.35Q73.8-26.35 76.65-24.68 79.5-23 80.92-20.05 82.34-17.1 82.34-13.2L82.34-13.2Q82.34-6.85 79.17-3.38 76 0.1 69.5 0.1ZM62.65-14.05L62.65-14.05Q62.65-12.5 64.2-11.88 65.75-11.25 69.5-11.25L69.5-11.25Q73.25-11.25 74.8-11.88 76.34-12.5 76.34-14.05L76.34-14.05Q76.34-15.55 74.8-16.15 73.25-16.75 69.5-16.75L69.5-16.75Q65.75-16.75 64.2-16.15 62.65-15.55 62.65-14.05ZM93.69 0L93.69 0Q84.59 0 84.59-13.4L84.59-13.4Q84.59-19.2 86.84-22.68 89.09-26.15 93.59-26.15L93.59-26.15Q96.04-26.15 97.57-25.15 99.09-24.15 99.97-22.43 100.84-20.7 101.24-18.45L101.24-18.45 101.39-18.5 101.39-33.65Q101.39-35.7 102.62-37.13 103.84-38.55 106.19-38.55L106.19-38.55Q108.49-38.55 109.62-37.13 110.74-35.7 110.74-33.55L110.74-33.55 110.74-11.05Q110.74-9.35 111.02-7.93 111.29-6.5 111.44-5.1L111.44-5.1Q111.59-3.2 110.67-1.83 109.74-0.45 107.39-0.05L107.39-0.05Q104.34 0.45 102.87-1.1 101.39-2.65 101.39-5.7L101.39-5.7 101.39-7.55 100.44-7.55Q100.44-3.9 98.62-1.95 96.79 0 93.69 0ZM92.94-13.85L92.94-13.85Q92.94-12.3 93.89-11.55 94.84-10.8 97.29-10.8L97.29-10.8Q99.79-10.8 100.74-11.55 101.69-12.3 101.69-13.85L101.69-13.85Q101.69-15.45 100.77-16.18 99.84-16.9 97.34-16.9L97.34-16.9Q94.84-16.9 93.89-16.18 92.94-15.45 92.94-13.85ZM121.84 0L121.84 0Q118.34 0 116.14-2.65 113.94-5.3 113.89-10.1L113.89-10.1 113.84-21.65Q113.84-23.8 115.17-25.03 116.49-26.25 118.79-26.25L118.79-26.25Q120.99-26.25 122.34-25.03 123.69-23.8 123.69-21.65L123.69-21.65 123.69-11.2Q123.69-7.45 126.64-7.45L126.64-7.45Q128.09-7.45 128.59-8.53 129.09-9.6 129.09-11.3L129.09-11.3 129.09-21.65Q129.09-23.6 130.44-24.93 131.79-26.25 133.94-26.25L133.94-26.25Q136.19-26.25 137.42-24.93 138.64-23.6 138.64-21.65L138.64-21.65 138.64-5.25Q138.64-2.85 137.56-1.43 136.49 0 134.09 0L134.09 0Q131.74 0 130.42-1.43 129.09-2.85 129.09-5.25L129.09-5.25 129.09-6.1 128.19-6.1Q128.19-3.2 126.47-1.6 124.74 0 121.84 0ZM154.09 0.15L154.09 0.15Q150.19 0.15 147.19-1.48 144.19-3.1 142.49-6.1 140.79-9.1 140.79-13.15L140.79-13.15Q140.79-17.2 142.49-20.2 144.19-23.2 147.21-24.85 150.24-26.5 154.19-26.5L154.19-26.5Q157.29-26.5 159.66-25.85 162.04-25.2 163.41-23.9 164.79-22.6 164.79-20.65L164.79-20.65Q164.79-18.3 163.59-16.98 162.39-15.65 160.14-15.65L160.14-15.65Q158.64-15.65 157.16-16.1 155.69-16.55 153.39-16.55L153.39-16.55Q151.49-16.55 150.19-15.95 148.89-15.35 148.89-13.75L148.89-13.75Q148.89-12.1 150.19-11.38 151.49-10.65 153.39-10.65L153.39-10.65Q154.94-10.65 155.99-10.95 157.04-11.25 157.99-11.55 158.94-11.85 160.14-11.85L160.14-11.85Q162.69-11.85 163.91-10.38 165.14-8.9 165.14-6.6L165.14-6.6Q165.14-4.65 163.69-3.13 162.24-1.6 159.74-0.73 157.24 0.15 154.09 0.15ZM181.64 0.15L181.64 0.15Q178.99 0.15 176.86-1.05 174.74-2.25 173.54-4.48 172.34-6.7 172.34-9.7L172.34-9.7 172.34-18.5 170.49-18.25Q168.99-18.05 167.84-19.3 166.69-20.55 166.69-22.45L166.69-22.45Q166.69-24.35 167.84-25.58 168.99-26.8 170.49-26.6L170.49-26.6 172.34-26.35 172.29-29.75Q172.24-31.75 173.44-32.93 174.64-34.1 176.94-34.1L176.94-34.1Q179.24-34.1 180.49-32.93 181.74-31.75 181.64-29.75L181.64-29.75 181.54-26.35 184.19-26.7Q186.89-27.1 188.29-25.73 189.69-24.35 189.69-22.45L189.69-22.45Q189.69-20.55 188.31-19.18 186.94-17.8 184.34-18.15L184.34-18.15 181.54-18.5 181.54-11.05Q181.54-10.4 181.99-9.88 182.44-9.35 183.09-9.55L183.09-9.55Q183.84-9.75 184.66-10.4 185.49-11.05 186.79-11.05L186.79-11.05Q188.74-11.05 189.79-9.65 190.84-8.25 190.84-6.2L190.84-6.2Q190.84-4.6 189.71-3.13 188.59-1.65 186.54-0.75 184.49 0.15 181.64 0.15ZM192.88-31.95L192.88-31.95Q192.88-34.1 194.21-35.43 195.53-36.75 197.88-36.75L197.88-36.75Q200.38-36.75 201.61-35.45 202.83-34.15 202.83-32L202.83-32Q202.83-29.9 201.61-28.63 200.38-27.35 197.88-27.35L197.88-27.35Q195.43-27.35 194.16-28.63 192.88-29.9 192.88-31.95ZM197.88 0L197.88 0Q195.53 0 194.38-1.3 193.23-2.6 193.23-4.55L193.23-4.55 193.23-21.65Q193.23-23.8 194.38-25.05 195.53-26.3 197.88-26.3L197.88-26.3Q200.23-26.3 201.41-25.05 202.58-23.8 202.58-21.75L202.58-21.75 202.58-4.55Q202.58-2.6 201.36-1.3 200.13 0 197.88 0ZM219.83 0.15L219.83 0.15Q217.18 0.15 215.06-1.05 212.93-2.25 211.73-4.48 210.53-6.7 210.53-9.7L210.53-9.7 210.53-18.5 208.68-18.25Q207.18-18.05 206.03-19.3 204.88-20.55 204.88-22.45L204.88-22.45Q204.88-24.35 206.03-25.58 207.18-26.8 208.68-26.6L208.68-26.6 210.53-26.35 210.48-29.75Q210.43-31.75 211.63-32.93 212.83-34.1 215.13-34.1L215.13-34.1Q217.43-34.1 218.68-32.93 219.93-31.75 219.83-29.75L219.83-29.75 219.73-26.35 222.38-26.7Q225.08-27.1 226.48-25.73 227.88-24.35 227.88-22.45L227.88-22.45Q227.88-20.55 226.51-19.18 225.13-17.8 222.53-18.15L222.53-18.15 219.73-18.5 219.73-11.05Q219.73-10.4 220.18-9.88 220.63-9.35 221.28-9.55L221.28-9.55Q222.03-9.75 222.86-10.4 223.68-11.05 224.98-11.05L224.98-11.05Q226.93-11.05 227.98-9.65 229.03-8.25 229.03-6.2L229.03-6.2Q229.03-4.6 227.91-3.13 226.78-1.65 224.73-0.75 222.68 0.15 219.83 0.15ZM243.88 0.1L243.88 0.1Q238.03 0.1 234.55-3.38 231.08-6.85 231.08-13.2L231.08-13.2Q231.08-17.1 232.68-20.05 234.28-23 237.15-24.68 240.03-26.35 243.88-26.35L243.88-26.35Q248.18-26.35 251.03-24.68 253.88-23 255.3-20.05 256.73-17.1 256.73-13.2L256.73-13.2Q256.73-6.85 253.55-3.38 250.38 0.1 243.88 0.1ZM237.03-14.05L237.03-14.05Q237.03-12.5 238.58-11.88 240.13-11.25 243.88-11.25L243.88-11.25Q247.63-11.25 249.18-11.88 250.73-12.5 250.73-14.05L250.73-14.05Q250.73-15.55 249.18-16.15 247.63-16.75 243.88-16.75L243.88-16.75Q240.13-16.75 238.58-16.15 237.03-15.55 237.03-14.05ZM271.77 0.65L271.77 0.65Q268.32 0.65 265.4-0.03 262.47-0.7 260.72-2.18 258.97-3.65 258.97-6.1L258.97-6.1Q258.97-8.25 260.27-9.65 261.57-11.05 263.72-11.05L263.72-11.05Q265.07-11.05 266.45-10.63 267.82-10.2 269.38-9.8 270.93-9.4 272.72-9.4L272.72-9.4Q274.32-9.4 274.88-9.58 275.43-9.75 275.43-10.25L275.43-10.25Q275.43-10.85 274.75-11.05 274.07-11.25 272.47-11.55L272.47-11.55 268.88-12.25Q266.63-12.7 264.5-13.43 262.38-14.15 261-15.6 259.63-17.05 259.63-19.55L259.63-19.55Q259.63-22.95 262.65-24.85 265.68-26.75 271.43-26.75L271.43-26.75Q274.72-26.75 277.35-26.1 279.97-25.45 281.52-24.18 283.07-22.9 283.07-21L283.07-21Q283.13-18.95 281.97-17.7 280.82-16.45 279.07-16.45L279.07-16.45Q277.82-16.45 276.55-16.78 275.27-17.1 273.8-17.48 272.32-17.85 270.43-17.9L270.43-17.9Q269.07-18 268.22-17.75 267.38-17.5 267.38-16.95L267.38-16.95Q267.38-16.35 268.38-16.13 269.38-15.9 271.38-15.55L271.38-15.55 274.93-14.9Q278.18-14.35 280.1-13.53 282.02-12.7 282.88-11.25 283.72-9.8 283.72-7.25L283.72-7.25Q283.72-4.6 282.2-2.83 280.68-1.05 277.97-0.2 275.27 0.65 271.77 0.65Z" fill="#00cce1" data-fill-palette-color="primary"></path></g></svg></g></svg></g></svg></g></svg></g></svg></g><defs></defs></svg><rect width="395.52" height="54.863013974162385" fill="none" stroke="none" visibility="hidden"></rect></g></svg></g></svg>